<?xml version="1.0" standalone="no"?>
<!DOCTYPE svg PUBLIC "-//W3C//DTD SVG 20010904//EN"
 "http://www.w3.org/TR/2001/REC-SVG-20010904/DTD/svg10.dtd">
<svg version="1.0" xmlns="http://www.w3.org/2000/svg"
 width="808.000000pt" height="808.000000pt" viewBox="0 0 808.000000 808.000000"
 preserveAspectRatio="xMidYMid meet">
<metadata>
Created by potrace 1.11, written by Peter Selinger 2001-2013
</metadata>
<g transform="translate(0.000000,808.000000) scale(0.100000,-0.100000)"
fill="#000000" stroke="none">
<path d="M3960 7263 c-471 -15 -911 -125 -1335 -333 -1059 -518 -1760 -1582
-1813 -2749 -19 -429 33 -821 162 -1206 360 -1075 1262 -1890 2364 -2139 460
-104 984 -104 1444 0 1214 274 2178 1238 2452 2452 104 460 104 984 0 1444
-272 1205 -1219 2160 -2426 2447 -250 59 -585 92 -848 84z m1657 -2605 c-3
-982 -7 -1397 -16 -1458 -47 -339 -117 -543 -259 -756 -70 -104 -224 -258
-327 -326 -300 -198 -694 -290 -1175 -275 -343 11 -620 72 -856 188 -225 110
-620 398 -809 588 l-80 81 382 382 381 381 61 -55 c116 -104 504 -363 642
-428 136 -63 294 -75 422 -31 114 40 200 130 237 249 35 113 41 263 38 1042
l-3 745 -693 5 -692 5 507 507 508 507 735 9 c404 5 795 9 868 10 l133 2 -4
-1372z"/>
</g>
</svg>
